<?xml version="1.0" encoding="utf-8" ?><svg xmlns="http://www.w3.org/2000/svg" xmlns:xlink="http://www.w3.org/1999/xlink" width="4986" height="888" viewBox="0 0 4986 888"><path fill="#27A39F" transform="scale(10.6989 10.6989)" d="M22.4263 2.10686C25.997 1.58145 34.063 1.92529 37.8646 1.99236C47.4388 2.16127 57.375 1.35623 66.8294 2.73945C86.6442 5.63843 83.3952 26.3806 83.7013 41.0037C83.4577 48.6609 84.3644 56.4152 83.0491 64.0019C81.0416 75.5815 73.9355 79.2185 63.3056 80.4784C53.9803 81.5232 43.0162 80.3792 33.5337 80.8029C28.3585 81.0341 23.1325 80.7989 17.9748 80.0274C7.92185 78.5236 2.5126 70.7659 2.09349 60.9391C1.81652 50.1985 2.17323 39.2142 1.98559 28.4996C1.71102 12.8215 5.15938 3.23098 22.4263 2.10686Z"/><path fill="#FEFEFE" transform="scale(10.6989 10.6989)" d="M18.084 15.8804C24.7335 16.4053 35.377 20.309 40.4245 25.0572C46.8149 31.0686 45.1417 39.2216 45.3619 47.4968C39.2211 41.3945 33.894 31.7617 27.7368 24.6395C28.5422 26.7859 30.2395 29.8046 31.3533 31.9136C33.2275 36.035 34.568 40.1264 34.6848 44.6926C34.8698 51.9238 34.7719 59.2464 34.5966 66.4754C25.9945 65.9427 18.9726 62.3062 18.2228 52.7734C17.901 48.6826 18.1147 44.4774 18.1111 40.3669L18.084 15.8804Z"/><path fill="#FEFEFE" transform="scale(10.6989 10.6989)" d="M66.7263 39.0168C66.7439 39.035 66.7623 39.0522 66.779 39.0712C67.4699 39.8581 66.8766 56.7522 66.6318 58.5664C66.3044 60.9926 65.8234 62.7234 63.8075 64.2505C61.8457 65.7367 59.2894 66.8755 56.7807 66.5192C51.2168 65.7289 45.2271 57.9238 42.0228 53.6851C40.5771 51.3818 39.45 49.1603 38.6213 46.5611C44.5721 49.5579 48.0633 55.6146 55.3478 57.6744C56.1002 57.8871 56.7524 57.9816 57.4609 57.5874C59.0836 56.0254 58.3497 46.7128 58.7128 44.0147C60.9314 42.0149 64.1288 40.5141 66.7263 39.0168Z"/><path fill="#FEFEFE" transform="scale(10.6989 10.6989)" d="M60.2337 18.7802C63.5935 18.401 67.0717 19.809 67.5833 23.5106C68.3759 29.2457 63.5006 36.296 58.0294 37.9047C57.5873 38.0346 57.4062 37.7706 57.0697 37.5173C52.6703 32.8778 43.8835 24.2951 53.8399 20.2352C54.6945 20.4973 56.0889 21.1223 56.9585 21.4831C58.2541 20.2123 58.6134 19.6554 60.2337 18.7802Z"/><path fill="#27A39F" transform="scale(10.6989 10.6989)" d="M62.7749 24.8987L63.5002 25.0348L63.6941 25.4304C62.3325 27.4231 61.1606 29.6218 59.986 31.7373C59.5316 32.0591 58.0808 31.9514 57.4386 31.9493L56.8342 31.9675L56.5748 31.631C56.8928 29.6217 61.0229 25.9046 62.7749 24.8987Z"/><path fill="#27A39F" transform="scale(10.6989 10.6989)" d="M303.136 14.5725C307.207 14.4599 311.743 14.3341 315.785 14.5724C319.419 26.6549 324.394 43.0048 326.579 55.2587C331.335 41.9544 334.178 28.1499 338.731 15.0782C340.704 14.8532 347.927 14.4179 349.537 15.2237C350.917 17.1323 359.901 49.8814 361.631 55.4563C362.03 53.7933 363.783 47.7973 364.214 46.3532C365.586 41.7582 371.317 17.8243 373.031 15.3322C374.848 14.4527 383.641 14.9015 385.947 15.0312C384.319 20.6672 382.706 26.6397 380.916 32.1908C380.896 32.5746 377.654 43.4945 377.246 44.8803C374.577 53.9279 372.09 63.098 369.406 72.1475C369.055 73.3316 368.51 74.5905 367.953 75.6972C366.867 76.5325 357.867 76.0657 355.739 76.0047C354.7 73.2249 353.399 67.6526 352.503 64.5565C349.807 55.2407 347.328 46.1066 344.371 36.8554C341.784 44.3335 339.631 51.3318 337.391 58.8732C336.386 62.2555 333.193 73.5747 331.91 75.6582C330.797 76.5045 322.101 76.1082 320.072 76.0673L319.327 73.7335C313.573 55.0777 308.715 35.8694 303.16 17.1268C302.877 16.1734 302.665 15.4637 303.136 14.5725Z"/><path fill="#27A39F" transform="scale(10.6989 10.6989)" d="M110.135 14.6076C111.591 14.3461 116.28 14.4194 117.943 14.5689C119.325 14.6157 120.846 15.7327 121.678 16.8446C131.473 29.9429 141.008 43.4109 150.972 56.3829L150.302 14.781C152.446 14.799 161.492 14.5397 162.643 15.5618C163.27 17.9397 163.053 31.2913 163.052 34.5939L163.013 76.2733C161.485 76.1333 160.042 76.1282 158.513 76.1102C155.535 76.1629 153.254 76.1419 150.287 75.952C149.333 75.0006 148.147 73.4822 147.375 72.376C138.123 59.1267 128.592 46.0995 118.966 33.1195C119.146 35.7898 119.045 39.6502 119.043 42.3858L119.033 62.0104C119.032 66.7889 118.908 71.6115 119.38 76.3604C115.936 75.9302 110.524 76.1065 106.947 76.1319L106.924 33.4537C106.919 27.9798 106.318 19.9638 107.075 14.8642C107.964 14.7471 109.212 14.6839 110.135 14.6076Z"/><path fill="#27A39F" transform="scale(10.6989 10.6989)" d="M405.343 31.8539C418.739 31.8752 428.359 42.1743 425.045 55.9531C424.747 57.1932 423.473 58.0213 422.195 57.9518C412.752 57.4382 402.623 58.2067 393.263 57.6434L393.898 58.8647C395.984 62.7933 398.599 65.7914 402.974 67.0899C409.546 69.0404 414.052 66.6527 419.614 63.6914L420.879 65.3451C421.834 66.8712 424.227 70.8563 422.342 72.3834C418.592 75.1707 412.269 76.6288 407.562 76.9121C386.02 78.2088 374.412 55.9175 388.136 39.3257C392.316 34.2722 399.048 32.2643 405.343 31.8539ZM394.279 50.1036C397.881 49.462 401.795 49.7676 405.437 49.8914C408.306 49.8842 411.504 49.5882 414.332 49.9928C413.696 46.9204 412.885 44.4342 410.113 42.6093C408.682 41.667 406.35 40.9616 404.647 41.0823C401.456 41.4586 399.022 42.5466 396.99 45.1162C395.798 46.6239 395.029 48.3476 394.279 50.1036Z"/><path fill="#27A39F" transform="scale(10.6989 10.6989)" d="M182.562 60.5233C183.563 64.8585 186.463 67.2704 191.022 66.7253C199.992 65.6528 199.037 57.2354 199 50.4242L198.923 38.668C198.909 37.0935 198.593 34.6742 199.577 33.5111C201.191 32.5398 208.966 32.7645 211.153 32.8135C211.631 39.8284 211.377 47.72 211.439 54.8615C211.493 61.0951 212.045 70.0249 211.495 76.0148C207.664 76.1585 203.858 76.0924 200.026 76.0542L199.837 71.0024C195.144 76.6962 186.729 78.5092 180.059 75.9114C167.823 70.9767 170.428 55.2398 170.075 44.6913C170.004 42.5568 169.748 35.2174 170.384 33.5507C171.505 32.5275 179.92 32.956 181.908 32.992C182.896 34.4694 182.435 56.8399 182.562 60.5233Z"/><path fill="#2FA5A9" transform="scale(10.6989 10.6989)" d="M181.908 32.992C182.896 34.4694 182.435 56.8399 182.562 60.5233C180.477 59.6353 181.994 37.5296 181.701 34.0303C181.675 33.7139 181.793 33.2946 181.908 32.992Z"/><path fill="#27A39F" transform="scale(10.6989 10.6989)" d="M224.396 20.0811C225.862 20.3107 233.414 20.2442 235.502 20.264C236.112 22.837 236.044 29.529 236.096 32.4991C238.578 32.8711 244.079 32.9417 246.948 33.086C247.172 36.1839 247.051 40.164 247.035 43.3302C243.778 43.1838 239.029 43.6507 235.993 43.275C236.069 49.0779 235.947 54.8997 235.954 60.7003C235.963 67.8186 242.629 66.8879 247.53 66.6901L247.521 73.7909C247.493 75.083 247.176 75.7985 245.832 76.0886C232.928 78.8747 223.864 74.5897 223.914 60.1345C223.933 54.4592 223.845 48.1865 223.981 42.4531C221.705 42.5489 219.159 42.5146 216.895 42.3081C216.679 40.0932 216.95 34.9688 217.021 32.5534C218.992 32.4554 222.169 32.2095 224.01 32.4602C223.89 30.6273 223.624 21.2905 224.396 20.0811Z"/><path fill="#27A39F" transform="scale(10.6989 10.6989)" d="M454.303 14.6076C456.639 14.4 460.983 14.5096 463.482 14.4973C464.12 25.8716 463.703 40.9288 463.705 52.5141L463.69 66.9196C463.682 69.4313 463.755 73.7146 463.399 76.0543C462.974 76.3404 461.904 76.2087 461.334 76.1854C458.065 76.1662 454.784 76.1656 451.517 76.0622C451.761 61.4625 451.184 46.4101 451.471 31.7591C451.539 28.3192 451.236 17.8624 451.962 15.045C452.469 14.5697 453.563 14.64 454.303 14.6076Z"/><path fill="#27A39F" transform="scale(10.6989 10.6989)" d="M430.983 14.5337C434.989 14.4669 438.761 14.3995 442.766 14.5464C443.077 27.0099 442.75 40.6638 442.748 53.2271L442.769 66.6947C442.773 69.241 442.861 73.3077 442.514 75.7493L442.035 76.0996L430.81 76.1354C431.238 55.6586 430.514 34.9103 430.983 14.5337Z"/><path fill="#27A39F" transform="scale(10.6989 10.6989)" d="M264.961 39.7273C269.237 34.8004 274.308 32.1836 280.974 33.0161C281.233 36.3001 281.182 39.9092 281.009 43.1943C269.439 44.0142 265.857 47.1004 266.034 59.125C266.037 64.7457 265.983 70.4937 266.138 76.1016C262.243 76.0392 258.119 76.1177 254.211 76.1324C254.335 62.2282 253.834 46.6802 254.319 32.9995C255.841 33.0032 257.451 32.9189 258.979 32.8641C261.056 32.7757 262.979 32.8388 265.055 32.8968C265.061 35.2009 265.025 37.424 264.961 39.7273Z"/><path fill="#27A39F" transform="scale(10.6989 10.6989)" d="M291.935 32.866C294.292 32.7895 296.643 32.7811 298.991 33.0183C299.477 46.9535 298.829 61.9644 299.115 76.0966C297.375 76.0747 295.559 76.107 293.812 76.113L286.981 76.1272C287.104 72.0395 286.492 67.964 286.54 63.9335C286.663 53.7251 286.208 43.2897 286.563 33.1046C288.037 32.9571 290.395 32.9297 291.935 32.866Z"/><path fill="#27A39F" transform="scale(10.6989 10.6989)" d="M292.241 14.0654C293.384 13.9819 295.414 14.3093 296.469 14.9038C299.435 16.5759 299.959 21.0652 298.365 23.8637C297.213 25.8873 295.694 26.4789 293.483 27.0584C283.168 25.5457 284.011 15.6455 292.241 14.0654Z"/></svg>