<?xml version="1.0" encoding="utf-8" ?><svg xmlns="http://www.w3.org/2000/svg" xmlns:xlink="http://www.w3.org/1999/xlink" width="723" height="716" viewBox="0 0 723 716"><path fill="#25A49E" transform="scale(3.78725 3.78725)" d="M48.9248 2.35986C49.1839 2.33976 49.4598 2.32049 49.7194 2.31749C66.3591 2.12494 83.0279 2.25951 99.6715 2.20592L125.254 2.19363C136.098 2.23126 146.172 2.08352 156.852 4.49303C179.255 9.54741 187.915 29.537 187.999 50.7409C188.072 69.131 188.014 87.5465 188.023 105.935L188.033 127.91C188.035 136.823 188.335 145.594 186.262 154.349C182.904 168.531 172.646 180.974 158.168 184.617C152.942 185.932 146.646 186.674 141.272 186.783C135.665 187.259 129.186 186.997 123.488 186.996L95.6271 186.992L65.5833 187.001C49.0512 187.001 28.9733 188.16 15.9631 176.099C0.297753 161.575 2.00772 139.007 2.00635 119.531L2.01324 88.4871L2.00127 63.9318C1.99502 42.4543 1.62262 17.254 24.9751 6.88332C32.8138 3.40217 40.4191 2.76442 48.9248 2.35986Z"/><path fill="#FEFEFE" transform="scale(3.78725 3.78725)" d="M37.4743 33.9466C54.0586 34.4272 78.5582 44.3445 90.2722 56.3533C93.8434 60.0145 96.926 64.4419 98.5122 69.3307C101.269 77.8287 100.082 99.5001 99.9469 109.438C97.049 106.892 94.6037 103.674 92.1437 100.74C85.238 92.7448 79.8499 83.8627 73.8814 75.2346C70.0336 69.672 64.6639 63.5732 60.3147 58.2392C62.1115 62.9609 65.2827 68.4591 67.4462 73.3558C69.8899 77.7726 74.6617 89.4691 75.2298 94.2536C76.1847 102.295 76.0784 114.132 75.9426 122.475C75.7803 132.441 76.313 144.244 75.803 153.97C65.3 152.58 54.8575 152.714 46.841 144.386C38.9535 136.174 37.5642 126.458 37.5942 115.567C37.6691 88.4064 37.1323 61.0945 37.4743 33.9466Z"/><path fill="#FEFEFE" transform="scale(3.78725 3.78725)" d="M152.102 88.7556L152.383 88.764L152.64 89.1175L152.758 115.476C152.744 121.249 152.755 127.621 151.949 133.323C151.068 139.558 147.383 145.045 142.325 148.664C138.334 151.52 130.149 153.783 125.29 152.712C112.781 149.955 99.8861 134.998 92.9504 125.163C90.7953 121.868 85.7449 112.926 86.1181 109.244C87.1089 108.653 88.2771 109.351 89.185 109.868C92.7719 111.909 96.0458 114.93 99.3678 117.387C105.218 121.713 118.566 130.852 125.798 131.348C126.884 131.422 128.037 131.241 128.862 130.473C131.701 127.829 130.98 105.639 131.067 100.912C134.197 98.2725 147.938 90.8092 152.102 88.7556Z"/><path fill="#FEFEFE" transform="scale(3.78725 3.78725)" d="M138.903 40.0705C144.428 39.5411 150.234 44.0568 152.596 48.8037C154.822 53.2773 154.046 58.7877 152.533 63.3534C148.587 75.2637 139.601 82.2281 128.649 87.5749C128.087 86.689 127.192 85.5466 126.547 84.6809C118.856 74.1067 102.693 64.0006 112.993 48.7368C116.481 43.5689 123.568 42.5498 128.624 46.2846C131.341 42.0227 133.943 40.8189 138.903 40.0705Z"/><path fill="#25A49E" transform="scale(3.78725 3.78725)" d="M140.968 58.0572C141.978 57.9763 142.48 57.9099 143.503 58.0696L143.689 58.3461C141.469 60.586 140.152 62.2227 138.317 64.8779C136.58 67.3926 135.349 70.7239 133.111 72.7638C132.015 73.7622 130.653 72.792 129.275 72.6351L129.141 72.6208L124.967 73.0283C127.586 69.2908 137.081 59.5386 140.968 58.0572Z"/></svg>