<?xml version="1.0" encoding="utf-8" ?>
<svg xmlns="http://www.w3.org/2000/svg" xmlns:xlink="http://www.w3.org/1999/xlink" width="566" height="179">
	<path fill="#FECE3D" transform="scale(0.303811 0.304422)" d="M276.975 0L1585.99 0C1604.39 3.20227 1622.59 4.21347 1640.93 8.71084C1709.31 25.9884 1769.22 67.2437 1809.77 124.976C1835.78 162.152 1852.95 204.787 1859.96 249.621C1861.18 257.315 1863.33 267.844 1861.85 275.522C1861.83 275.634 1861.81 275.745 1861.78 275.856C1863.86 280.536 1864.31 306.331 1862.42 311.495C1862.23 312.01 1862 312.507 1861.75 312.997C1863.26 320.98 1861.07 331.554 1859.75 339.53C1852.84 382.677 1836.53 423.773 1811.96 459.9C1768.12 524.018 1700.72 568.188 1624.47 582.776C1612.91 584.953 1598.92 585.144 1588 588L275.717 588C271.648 586.822 266.649 586.834 262.412 586.308C253.912 585.297 245.447 584.005 237.032 582.433C195.499 574.3 156.218 557.263 121.89 532.496C64.7318 491.304 24.3002 430.904 7.98688 362.338C3.91943 345.213 2.75244 328.297 0 311.054L0 276.935C2.61377 266.173 2.85112 250.942 5.03736 239.107C12.804 198.027 29.2132 159.069 53.1761 124.819C93.4971 67.2628 153.142 26.1179 221.243 8.88141C239.829 4.29387 258.338 3.32961 276.975 0Z"/>
	<path fill="#0F5153" transform="scale(0.303811 0.304422)" d="M1348.83 143.359C1359.47 142.213 1371.27 142.533 1381.99 142.839C1387.08 142.984 1395.2 143.599 1398.87 147.721C1402.84 152.194 1404.2 160.488 1405.36 166.269C1418.21 230.793 1423.12 297.799 1430.61 363.142C1432.41 379.103 1434.31 395.051 1436.33 410.985C1437.76 422.412 1440.21 434.686 1439.65 446.211C1437.5 448.692 1434.26 451.795 1430.8 452.046C1420.6 452.785 1420.47 441.446 1414.89 436.736C1414.82 436.673 1414.74 436.611 1414.67 436.549C1415.75 439.766 1416.28 443.412 1415.97 446.811C1415.76 449.062 1415.11 451.15 1413.24 452.575C1409.39 455.528 1392.68 455.979 1387.6 455.331C1379.1 448.52 1383.96 388.925 1376.97 373.591C1376.93 373.514 1376.9 373.438 1376.86 373.362C1371.28 375.519 1362.58 375.778 1356.52 376.732C1344.54 379.011 1332.44 380.565 1320.27 381.387C1320.55 382.142 1320.73 382.872 1320.66 383.68C1320.2 388.803 1317.75 394.929 1316.3 399.875C1311.97 414.643 1306.52 429.835 1304.2 445.042C1303.7 448.272 1303.56 452.878 1300.83 454.938C1290.5 454.354 1261.33 449.25 1254.01 442.098C1250.44 433.784 1262.21 399.947 1265.17 389.234C1286.8 310.664 1311.53 232.981 1339.29 156.365C1341.57 150.138 1342.53 146.289 1348.83 143.359Z"/>
	<path fill="#FECE3D" transform="scale(0.303811 0.304422)" d="M1363.87 233.468C1365.22 233.742 1365.21 233.793 1366.06 234.896C1367.62 245.865 1375.98 316.693 1373.15 322.924C1364.1 325.004 1353.87 325.279 1344.57 325.998C1341.44 327.01 1337.31 326.903 1334 327.142C1335.24 325.589 1336.28 323.978 1336.92 322.081C1342.57 305.373 1346.53 287.836 1351.65 270.923C1355.42 258.443 1360.63 246.008 1363.87 233.468Z"/>
	<path fill="#0F5153" transform="scale(0.303811 0.304422)" d="M932.751 147C940.233 146.721 950.751 145.135 957.45 149.188C960.609 151.099 961.537 153.202 961.726 156.816C962.386 169.466 957.562 188.459 955.63 201.464C949.887 240.122 930.146 355.776 938.217 387.234C939.508 392.268 941.907 397.593 946.617 400.274C950.454 402.458 955.184 402.425 959.33 401.201C1002.77 388.38 1007.62 230.939 1010.37 190.603C1010.93 182.377 1011.08 157.134 1014.45 151.426C1015.55 149.557 1018.56 148.473 1020.55 148.032C1028.24 146.32 1052.26 145.88 1058.87 150.515C1060.62 151.742 1061.14 152.833 1061.51 154.862C1063.15 163.93 1061.83 229.184 1058.07 234.571C1058.74 236.102 1058.84 237.809 1058.84 239.461C1058.85 252.153 1056.46 265.719 1054.86 278.321C1050.35 313.827 1043.69 348.956 1038.44 384.344C1036.74 395.75 1035.04 407.206 1034.08 418.701C1033.41 426.748 1033.54 435.073 1032.4 443.046C1032.13 444.907 1031.92 446.611 1030.54 448.011C1025.92 449.979 1019.94 449.844 1015 449.687C1008.09 449.468 996.178 448.512 991.774 442.174C990.259 439.995 991.011 437.757 989.113 435.727C984.699 436.158 978.078 442.908 973.733 445.211C966.558 449.015 958.968 451.666 950.908 452.764C935.872 454.813 922.2 452.199 910.034 442.855C895.112 431.394 888.579 414.881 886.152 396.718C884.069 381.128 884.408 364.832 885.435 349.169C886.954 326.003 906.011 160.664 913.303 151.693C916.847 147.334 927.51 147.499 932.751 147Z"/>
	<path fill="#0F5153" transform="scale(0.303811 0.304422)" d="M1107.48 139.718C1118.41 139.92 1143.71 142.778 1152.26 149.433C1153.17 154.866 1142.96 249.501 1140.84 253.453C1156.95 245.802 1193.93 193.401 1203.94 177.724C1206.76 173.304 1220.1 147.226 1222.31 145.892C1224.65 144.473 1228.43 145.181 1230.97 145.846C1240.44 148.33 1262.64 157.643 1267.2 166.244C1268.16 168.061 1267.93 169.484 1267.3 171.336C1265.96 175.279 1262.77 178.774 1260.82 182.48C1240.9 220.356 1216 253.692 1184.11 282.328C1177.79 288.009 1170.62 295.121 1162.87 298.776C1167.83 302.145 1175.69 319.637 1179.49 325.874C1191.63 345.818 1204.18 364.818 1218.48 383.285C1222.68 388.716 1238.94 405.86 1239.94 410.964C1240.51 411.305 1241.2 411.685 1241.64 412.203C1242.12 412.778 1242.66 413.918 1242.6 414.636C1242.1 420.532 1230.78 432.207 1226.14 435.906C1226.08 435.733 1226 435.463 1225.89 435.295C1224.74 433.4 1221.42 431.494 1219.37 430.934L1218.24 431.97C1218.77 435.269 1221.38 435.807 1222.51 438.784C1222.55 438.896 1222.58 439.012 1222.62 439.125C1221.73 441.849 1219.68 444.336 1217.91 446.551C1215.74 449.267 1212.2 453.351 1208.53 453.673C1202.83 454.173 1195.4 442.778 1192.28 438.751C1176.19 418.199 1161.83 396.348 1149.35 373.422C1144.78 365.073 1135.8 344.285 1129.25 338.909C1130.03 340.528 1130.74 342.19 1130.77 344.016C1131.01 358.103 1128.11 373.627 1126.83 387.745C1125.3 404.648 1124.74 437.247 1120.22 452.084C1114.3 454.808 1102.38 450.603 1095.79 449.906C1096.33 449.002 1096.49 448.123 1096.59 447.095C1097.11 441.54 1097.3 436.595 1093.6 432.091C1093.7 432.455 1093.79 432.816 1093.86 433.185C1094.86 438.322 1093.67 445.545 1090.78 449.889C1083.13 447.643 1074.43 446.896 1066.53 445.586C1070.03 439.632 1070.9 414.049 1071.9 405.655C1075.89 373.374 1079.7 341.072 1083.34 308.75C1086.76 278.563 1097.63 156.556 1107.48 139.718Z"/>
	<path fill="#0F5153" transform="scale(0.303811 0.304422)" d="M582.411 227.635C583.1 227.832 583.3 228.118 583.744 228.681C586.681 232.399 621.186 333.425 624.979 346.029C626.333 350.527 628.441 355.824 627.958 360.567C617.801 368.588 555.96 369.403 539.601 371.358C525.232 373.075 510.824 375.521 497.019 379.954C474.263 387.261 454.579 399.143 436.469 414.604C427.453 422.179 420.56 431.236 414.133 441.021C413.839 414.801 412.442 313.419 419.974 295.654C436.81 255.948 505.878 244.641 543.989 236.891C556.682 234.31 570.356 232.476 582.411 227.635Z"/>
	<path fill="#0F5153" transform="scale(0.303811 0.304422)" d="M238.848 227.557C251.031 232.62 265.018 234.237 277.908 236.774C314.155 243.909 364.613 252.892 391.459 279.826C397.315 285.701 402.596 292.643 404.904 300.73C408.716 314.089 407.549 330.857 407.858 344.769C408.455 376.536 408.656 408.31 408.462 440.082C401.914 430.542 394.969 422.459 386.561 414.514C343.299 376.966 302.187 372.021 247.032 368.363C228.554 367.138 211.025 366.151 193.226 360.542C207.357 315.851 222.569 271.51 238.848 227.557Z"/>
	<path fill="#0F5153" transform="scale(0.303811 0.304422)" d="M834.111 139.716C841.972 139.371 855.975 146.288 863.198 149.737C868.288 152.167 877.276 156.59 879.177 162.405C881.333 169.001 874.401 181.671 871.658 187.79C859.259 215.648 845.911 243.073 831.637 270.017C824.079 284.359 807.751 309.563 803.65 324.221C796.294 350.515 792.083 378.306 790.054 405.501C789.6 411.596 790.271 445.264 788.703 448.196C781.405 450.588 771.66 450.35 764.01 450.939C764.065 450.276 764.102 449.611 764.118 448.945C764.172 446.448 763.763 443.619 761.976 441.756C760.094 443.881 761.648 448.336 760.253 451.122C760.197 451.235 760.132 451.342 760.071 451.451C753.621 452.771 743.502 454.579 737.265 452.568C727.6 444.347 734.269 388.64 736.133 376.419C737.263 369.009 742.489 348.825 740.955 342.685C741.318 342.177 741.667 341.651 741.953 341.094C744.594 335.948 749.07 317.036 747.538 311.893C747.758 308.363 730.407 282.494 727.91 277.917C718.709 261.049 682.502 184.032 681.019 169.125C680.808 167.011 680.916 164.831 682.346 163.166C688.631 155.85 711.049 149.683 720.67 148.995C722.9 148.836 726.003 148.69 727.748 150.287C736.316 158.129 745.458 189.398 750.249 201.083C753.661 209.403 757.535 217.56 761.451 225.654C764.454 231.864 776.881 252.027 777.175 256.672C787.529 248.381 815.185 171.825 824.996 153.137C827.463 148.439 830.887 143.914 834.111 139.716Z"/>
	<path fill="#0F5153" transform="scale(0.303811 0.304422)" d="M1493.25 144.269C1503.88 143.055 1529.85 144.187 1538.55 150.654C1540.45 152.065 1541.18 153.202 1541.46 155.591C1543.24 170.809 1539.09 189.447 1537.29 204.695L1527.12 289.189C1523.24 320.205 1519.61 351.252 1516.23 382.325C1514.08 402.61 1512.71 423.14 1509.91 443.329C1509.39 447.055 1508.94 451.901 1506.51 454.928C1504.25 456.367 1501.84 455.756 1499.34 455.404C1496.8 454.88 1494.63 454.363 1492.33 453.084C1491.05 450.755 1491.03 450.529 1491.38 447.886C1489.78 449.858 1488.16 451.693 1486.33 453.446C1478.76 449.311 1467.82 451.768 1460.97 446.014C1458.91 441.921 1460.17 433.809 1460.55 429.131C1462.95 399.489 1467.48 369.759 1471.07 340.221C1476.94 292.571 1482.49 244.882 1487.71 197.158C1489.56 180.951 1493.72 160.293 1493.25 144.269Z"/>
	<path fill="#0F5153" transform="scale(0.303811 0.304422)" d="M1605.25 138.808C1607.02 138.612 1608.8 138.568 1610.57 138.676C1620.7 139.376 1641.47 142.011 1648.24 149.733C1650.1 154.975 1649.32 161.395 1648.57 166.794C1642.86 207.892 1633.41 248.777 1626.71 289.774C1624.17 305.233 1621.77 320.715 1619.51 336.219C1618.01 347.172 1618.58 361.708 1614.35 371.785C1613.17 374.599 1612.04 374.895 1609.38 375.953C1600.52 375.95 1574.04 372.383 1567.67 367.317C1566.31 364.85 1566.55 361.883 1566.73 359.161C1569.21 323.157 1576.99 286.442 1583.05 250.869L1595.61 176.677C1597.33 165.931 1598.4 155.052 1600.28 144.342C1600.75 141.657 1603.18 140.288 1605.25 138.808Z"/>
	<path fill="#0F5153" transform="scale(0.303811 0.304422)" d="M523.154 110.453L523.82 111.294C519.329 117.197 514.077 123.225 510.336 129.603C501.762 144.221 500.831 161.3 495.76 177.09C484.499 212.147 458.01 224.23 427.841 239.672C417.38 261.07 418.043 273.461 411.793 294.371C410.957 280.345 406.608 268.879 399.357 256.966C364.51 245.186 356.283 243.034 341.523 208.02C337.506 198.492 332.783 190.048 325.926 182.249C321.131 177.534 315.787 173.781 310.211 170.077C327.404 172.143 344.043 172.742 360.344 179.393C383.781 188.957 401.666 209.06 405.329 234.591C406.961 245.969 406.319 255.819 410.937 266.725C411.917 256.632 416.179 247.774 417.14 238.201C417.767 231.957 417.062 225.403 417.047 219.123C416.998 197.362 420.271 177.32 432.79 158.91C453.157 128.958 489.172 116.902 523.154 110.453Z"/>
	<path fill="#FECE3D" transform="scale(0.303811 0.304422)" d="M481.91 139.28L482.484 139.717C477.071 148.315 468.133 155.728 462.054 164.213C448.592 183.004 439.222 204.144 429.371 224.943L428.969 224.897L428.586 223.559C438.03 189.818 453.471 160.558 481.91 139.28Z"/>
	<path fill="#FECE3D" transform="scale(0.303811 0.304422)" d="M352.441 193.729C353.42 193.83 354.319 194.126 355.223 194.504C375.156 202.835 393.857 226.544 401.917 246.156C395.851 242.214 385.304 225.162 379.746 218.715C371.544 209.202 362.524 201.184 352.441 193.729Z"/>
	<path fill="#0F5153" transform="scale(0.303811 0.304422)" d="M190.581 369.9C212.741 376.471 234.492 376.842 257.414 378.229C295.265 380.52 330.829 383.978 362.957 405.854C367.829 409.171 373.702 412.523 377.626 416.952L377.539 417.884L373.448 415.928C332.445 396.33 291.335 393.801 246.665 397.299C225.698 398.942 204.985 400.891 184.064 397.669L190.581 369.9Z"/>
	<path fill="#0F5153" transform="scale(0.303811 0.304422)" d="M627.201 370.896L630.748 370.696C631.214 371.177 631.671 371.699 632.003 372.285C634.738 377.11 638.949 392.563 637.586 397.681C623.547 401.395 606.425 399.434 592.096 398.417C541 394.793 501.994 392.768 453.939 414.176C450.15 415.868 446.345 417.526 442.525 419.148C453.091 411.401 463.676 402.911 475.278 396.789C511.05 377.914 556.773 379.199 596.145 376.274C605.167 375.604 619.122 375.252 627.201 370.896Z"/>
	<path fill="#0F5153" transform="scale(0.303811 0.304422)" d="M271.642 402.709C308.07 400.042 344.115 406.79 375.23 426.078C343.838 414.15 310.815 413.965 277.904 417.882C245.621 422.597 212.775 434.803 179.834 431.361C180.615 423.394 181.739 415.431 182.703 407.482C212.862 411.97 241.74 404.491 271.642 402.709Z"/>
	<path fill="#0F5153" transform="scale(0.303811 0.304422)" d="M530.435 402.707C566.814 400.403 602.613 413.423 638.952 407.524C639.446 408.23 639.91 408.983 640.188 409.803C641.809 414.597 643.831 426.938 641.661 431.365C618.308 434.135 591.727 427.567 569.097 422.262C527.774 413.732 489.258 412.267 448.782 425.587C476.584 409.184 498.299 404.489 530.435 402.707Z"/>
	<path fill="#0F5153" transform="scale(0.303811 0.304422)" d="M1569.63 399.13C1573.93 398.323 1578.07 398.369 1582.41 398.572C1589.97 398.925 1598.73 399.466 1604.1 405.594C1608.29 410.386 1608.82 417.175 1608.42 423.25C1607.9 431.055 1607.79 449.659 1601.54 455.142C1598.28 456.665 1594.68 455.946 1591.21 455.612L1590.97 455.529L1590.62 455.398C1590.13 455.223 1589.74 455.063 1589.29 454.797C1582.2 450.531 1572.46 452.996 1564.53 451.595C1562 451.149 1559.99 450.183 1558.59 447.962C1553.98 440.63 1558.07 422.523 1559.84 414.543C1561.4 407.577 1563.49 403.015 1569.63 399.13Z"/>
	<path fill="#0F5153" transform="scale(0.303811 0.304422)" d="M499.743 423.6C503.781 422.849 508.354 423.067 512.461 422.974C535.867 422.446 555.67 428.286 578.133 433.436C599.172 438.26 620.77 442.384 642.427 441.126C642.762 441.559 643.075 442.009 643.319 442.501C645.61 447.112 645.524 455.448 643.995 460.266C630.106 460.085 616.345 458.517 602.608 456.557C596.463 453.94 588.562 453.529 582.074 451.478C551.344 441.764 525.574 431.015 492.599 430.578C484.899 430.476 460.121 434.107 457.18 433.551C470.94 428.054 485.067 425.297 499.743 423.6Z"/>
	<path fill="#0F5153" transform="scale(0.303811 0.304422)" d="M291.692 423.614C313.653 419.607 347.23 425.745 367.591 434.45C322.486 425.643 287.895 433.813 245.834 450.07C224.277 457.866 200.104 459.833 177.378 460.302C178.086 453.945 178.676 447.575 179.148 441.196C220.717 443.165 252.59 427.7 291.692 423.614Z"/>
</svg>
